<svg width="24" height="24" viewBox="0 0 24 24" fill="none" xmlns="http://www.w3.org/2000/svg">
<path d="M24 12C24 5.37258 18.6274 0 12 0C5.37258 0 0 5.37258 0 12C0 18.6274 5.37258 24 12 24C18.6274 24 24 18.6274 24 12Z" fill="white"/>
<path fill-rule="evenodd" clip-rule="evenodd" d="M13.6973 4.61554C13.7293 4.61554 13.7606 4.61824 13.7912 4.62342L13.8925 4.62394C14.0442 4.62394 14.1891 4.68565 14.2947 4.79493L18.0602 8.7195C18.1598 8.82284 18.2156 8.96187 18.2156 9.10535V16.0192C18.2192 17.8548 16.7279 19.3647 14.8916 19.384L8.93755 19.3848H8.91598C8.02387 19.3848 7.18007 19.0391 6.54295 18.4086C5.90062 17.7737 5.54378 16.9262 5.53857 16.0222V7.95377C5.53857 6.11823 7.03213 4.62394 8.86841 4.62394L13.6034 4.62342C13.634 4.61824 13.6653 4.61554 13.6973 4.61554ZM13.1394 5.73887L8.86841 5.73909C7.64695 5.73909 6.65372 6.73306 6.65372 7.95377V16.0192C6.65744 16.6222 6.89683 17.1902 7.32727 17.6162C7.75698 18.0407 8.34949 18.2845 8.93383 18.2696C8.93643 18.2696 8.95818 18.2694 8.97982 18.2692L14.8857 18.2689C16.1064 18.2555 17.1026 17.2466 17.1004 16.02V9.80692L15.6057 9.80766C14.2452 9.80397 13.1397 8.69475 13.1397 7.33575L13.1394 5.73887ZM10.8465 11.0478L11.741 11.9428L12.636 11.0478C12.8539 10.83 13.2063 10.83 13.424 11.0478C13.6419 11.2656 13.6419 11.618 13.424 11.8358L12.529 12.7309L13.4232 13.6245C13.641 13.8423 13.641 14.1948 13.4232 14.4125C13.3147 14.5218 13.1719 14.5761 13.0292 14.5761C12.8865 14.5761 12.7436 14.5218 12.6352 14.4125L11.741 13.5189L10.8474 14.4125C10.7388 14.5218 10.596 14.5761 10.4533 14.5761C10.3106 14.5761 10.1678 14.5218 10.0593 14.4125C9.8415 14.1948 9.8415 13.8423 10.0593 13.6245L10.953 12.7309L10.0584 11.8358C9.84057 11.618 9.84057 11.2656 10.0584 11.0478C10.2763 10.83 10.6286 10.83 10.8465 11.0478ZM14.2545 6.36409L14.2548 7.33575C14.2548 8.08216 14.8615 8.69029 15.6071 8.69252L16.4886 8.69177L14.2545 6.36409Z" fill="#FF5151"/>
</svg>
