<svg width="24" height="24" viewBox="0 0 24 24" fill="none" xmlns="http://www.w3.org/2000/svg">
<path d="M24 12C24 5.37258 18.6274 0 12 0C5.37258 0 0 5.37258 0 12C0 18.6274 5.37258 24 12 24C18.6274 24 24 18.6274 24 12Z" fill="white"/>
<path fill-rule="evenodd" clip-rule="evenodd" d="M11.6676 4C12.5582 4 17.231 5.60424 17.8496 6.22283C18.3652 6.73846 18.3574 7.15504 18.3212 9.1515C18.307 9.95166 18.2874 11.0419 18.2874 12.551C18.2874 17.9603 12.1015 19.8955 11.8382 19.9748C11.7824 19.9921 11.725 20 11.6676 20C11.6102 20 11.5529 19.9921 11.4971 19.9748C11.2338 19.8955 5.04786 17.9603 5.04786 12.551C5.04786 11.0442 5.02821 9.95402 5.01406 9.15386C5.00761 8.79693 5.00205 8.49045 5.00022 8.22485L5 7.92514C5.00674 6.94056 5.09915 6.60955 5.48645 6.22283C6.10347 5.60424 10.7763 4 11.6676 4ZM11.6676 5.17901C11.0011 5.17901 6.79594 6.65985 6.31098 7.06465C6.16792 7.20849 6.16242 7.45844 6.19308 9.13185C6.20722 9.9383 6.22687 11.034 6.22687 12.551C6.22687 16.639 10.7244 18.4539 11.6668 18.788C12.6085 18.4523 17.1084 16.6272 17.1084 12.551C17.1084 11.0324 17.128 9.93594 17.143 9.12949C17.1728 7.45765 17.1673 7.2077 17.0156 7.05679C16.5401 6.65985 12.3342 5.17901 11.6676 5.17901ZM14.5928 9.76891C14.8231 9.99921 14.8231 10.3726 14.5928 10.6029L11.5289 13.6675C11.4409 13.7562 11.3272 13.8137 11.2051 13.8331L11.1123 13.8404C10.9559 13.8404 10.8058 13.7783 10.6949 13.6675L9.20781 12.1788C8.9783 11.9485 8.9783 11.5744 9.2086 11.3449C9.43811 11.1146 9.81225 11.1146 10.0426 11.3449L11.1123 12.4162L13.7596 9.76891C13.9899 9.53861 14.3625 9.53861 14.5928 9.76891Z" fill="#F09491"/>
</svg>
