<svg width="24" height="24" viewBox="0 0 24 24" fill="none" xmlns="http://www.w3.org/2000/svg">
<path d="M24 12C24 5.37258 18.6274 0 12 0C5.37258 0 0 5.37258 0 12C0 18.6274 5.37258 24 12 24C18.6274 24 24 18.6274 24 12Z" fill="white"/>
<path fill-rule="evenodd" clip-rule="evenodd" d="M15.2003 4.6153C17.703 4.6153 19.3845 6.37136 19.3845 8.98403V15.0158C19.3845 17.6285 17.703 19.3845 15.1996 19.3845H8.79862C6.29597 19.3845 4.61523 17.6285 4.61523 15.0158V8.98403C4.61523 6.37136 6.29597 4.6153 8.79862 4.6153H15.2003ZM15.2003 5.72299H8.79862C6.93031 5.72299 5.72293 7.00274 5.72293 8.98403V15.0158C5.72293 16.9971 6.93031 18.2768 8.79862 18.2768H15.1996C17.0686 18.2768 18.2768 16.9971 18.2768 15.0158V8.98403C18.2768 7.00274 17.0686 5.72299 15.2003 5.72299ZM15.0198 9.85616C15.2362 10.0725 15.2362 10.4226 15.0198 10.6389L11.515 14.1437C11.4072 14.2522 11.2654 14.3061 11.1237 14.3061C10.9826 14.3061 10.8401 14.2522 10.7323 14.1437L8.97917 12.3913C8.7628 12.1749 8.7628 11.8249 8.97917 11.6085C9.19554 11.3922 9.54557 11.3922 9.76194 11.6085L11.1237 12.9688L14.237 9.85616C14.4534 9.63979 14.8034 9.63979 15.0198 9.85616Z" fill="#34CE0E"/>
</svg>
