<svg width="24" height="24" viewBox="0 0 24 24" fill="none" xmlns="http://www.w3.org/2000/svg">
<path d="M24 12C24 5.37258 18.6274 0 12 0C5.37258 0 0 5.37258 0 12C0 18.6274 5.37258 24 12 24C18.6274 24 24 18.6274 24 12Z" fill="white"/>
<path fill-rule="evenodd" clip-rule="evenodd" d="M13.6983 4.61697C13.7303 4.61697 13.7616 4.61967 13.7922 4.62486L13.8926 4.62545C14.0443 4.62545 14.1893 4.68716 14.2948 4.79645L18.0612 8.71971C18.1601 8.82306 18.2159 8.96208 18.2159 9.10557V15.9381C18.2278 17.8034 16.7735 19.3193 14.9052 19.3862H8.85342C7.0392 19.3472 5.58419 17.8811 5.53933 16.0854L5.53906 7.95543C5.58293 6.11089 7.10554 4.62545 8.93596 4.62545L13.6044 4.62486C13.6349 4.61967 13.6663 4.61697 13.6983 4.61697ZM13.1402 5.74035L8.93818 5.74064C7.70626 5.74064 6.68325 6.73838 6.65426 7.96881V15.9381C6.6275 17.2027 7.62374 18.2435 8.87647 18.271H14.8859C16.1267 18.2264 17.1089 17.2027 17.1007 15.9417V9.80864L15.6075 9.80937C14.2463 9.80559 13.1407 8.69636 13.1407 7.33731L13.1402 5.74035ZM11.5911 9.93934C11.7451 9.93934 11.8845 10.0018 11.9854 10.1027L11.9862 10.1032L13.7304 11.8548C13.9475 12.0734 13.9467 12.4258 13.7289 12.6429C13.5103 12.86 13.1571 12.86 12.94 12.6414L12.1485 11.8464L12.1488 14.9882C12.1488 15.2961 11.899 15.5458 11.5911 15.5458C11.2834 15.5458 11.0336 15.2961 11.0336 14.9882L11.0333 11.8464L10.2428 12.6414C10.1342 12.7514 9.99069 12.8057 9.84798 12.8057C9.70592 12.8057 9.56321 12.7514 9.45466 12.6429C9.23681 12.4258 9.23534 12.0734 9.45318 11.8548L11.1959 10.1032L11.2207 10.0803C11.2315 10.0707 11.2426 10.0616 11.2541 10.0529L11.1959 10.1032C11.2166 10.0824 11.2389 10.0637 11.2625 10.047C11.3544 9.97931 11.4681 9.93934 11.5911 9.93934ZM14.2554 6.3656L14.2559 7.33731C14.2559 8.08376 14.8626 8.69191 15.609 8.69414L16.4895 8.69339L14.2554 6.3656Z" fill="#CDD100"/>
</svg>
