<svg width="24" height="24" viewBox="0 0 24 24" fill="none" xmlns="http://www.w3.org/2000/svg">
<path d="M24 12C24 5.37258 18.6274 0 12 0C5.37258 0 0 5.37258 0 12C0 18.6274 5.37258 24 12 24C18.6274 24 24 18.6274 24 12Z" fill="white"/>
<path d="M11.8462 5.12088C13.1763 5.12088 14.4766 5.51531 15.5825 6.25429C16.6885 6.99327 17.5505 8.04362 18.0595 9.27252C18.5686 10.5014 18.7017 11.8536 18.4422 13.1582C18.1827 14.4628 17.5422 15.661 16.6017 16.6017C15.6611 17.5422 14.4628 18.1827 13.1582 18.4422C11.8536 18.7017 10.5014 18.5686 9.27253 18.0595C8.04362 17.5505 6.99328 16.6885 6.25429 15.5825C5.51532 14.4766 5.12089 13.1763 5.12089 11.8462C5.12296 10.0631 5.83218 8.35374 7.09297 7.09296C8.35375 5.83218 10.0631 5.12296 11.8462 5.12088ZM11.8462 4C10.2944 4 8.77739 4.46017 7.48707 5.32232C6.19678 6.18446 5.19111 7.40986 4.59726 8.84357C4.0034 10.2773 3.84802 11.8548 4.15077 13.3769C4.45351 14.8989 5.20079 16.297 6.29809 17.3942C7.39539 18.4916 8.79345 19.2388 10.3154 19.5416C11.8375 19.8442 13.415 19.6889 14.8487 19.0951C16.2825 18.5012 17.5078 17.4956 18.37 16.2052C19.2322 14.9149 19.6923 13.3979 19.6923 11.8462C19.6923 9.76526 18.8657 7.76952 17.3942 6.29808C15.9227 4.82664 13.927 4 11.8462 4Z" fill="#7C8080"/>
<path d="M7.69238 11.8464L11.8462 7.6925L16.0001 11.8464L11.8462 16.0002L7.69238 11.8464Z" fill="#7C8080"/>
</svg>
