<svg width="24" height="24" viewBox="0 0 24 24" fill="none" xmlns="http://www.w3.org/2000/svg">
<path d="M24 12C24 5.37258 18.6274 0 12 0C5.37258 0 0 5.37258 0 12C0 18.6274 5.37258 24 12 24C18.6274 24 24 18.6274 24 12Z" fill="white"/>
<path d="M19.8092 10.3682H13.9252L16.3031 7.92087C13.9339 5.57767 10.098 5.49089 7.72874 7.83408C5.3595 10.186 5.3595 13.9784 7.72874 16.3304C10.098 18.6822 13.9339 18.6822 16.3031 16.3304C17.4834 15.1674 18.0735 13.8049 18.0735 12.0865H19.8092C19.8092 13.8049 19.0455 16.0352 17.5181 17.5453C14.472 20.5654 9.52519 20.5654 6.47903 17.5453C3.44156 14.5339 3.41552 9.63925 6.46167 6.62778C9.50784 3.61633 14.3939 3.61633 17.44 6.62778L19.8092 4.18912V10.3682ZM12.4325 8.52836V12.2168L15.47 14.0218L14.8451 15.0719L11.1307 12.8676V8.52836H12.4325Z" fill="#13A7C8"/>
</svg>
