<svg width="24" height="24" viewBox="0 0 24 24" fill="none" xmlns="http://www.w3.org/2000/svg">
<path d="M24 12C24 5.37258 18.6274 0 12 0C5.37258 0 0 5.37258 0 12C0 18.6274 5.37258 24 12 24C18.6274 24 24 18.6274 24 12Z" fill="white"/>
<path fill-rule="evenodd" clip-rule="evenodd" d="M11.9941 4C16.4053 4 19.9941 7.5888 19.9941 12C19.9941 16.4112 16.4053 20 11.9941 20C7.58294 20 3.99414 16.4112 3.99414 12C3.99414 7.5888 7.58294 4 11.9941 4ZM11.9941 5.2C8.24454 5.2 5.19414 8.2504 5.19414 12C5.19414 15.7496 8.24454 18.8 11.9941 18.8C15.7437 18.8 18.7941 15.7496 18.7941 12C18.7941 8.2504 15.7437 5.2 11.9941 5.2ZM11.7231 8.07632C12.0551 8.07632 12.3231 8.34512 12.3231 8.67632V12.2139L15.0471 13.8379C15.3311 14.0083 15.4247 14.3763 15.2551 14.6611C15.1423 14.8491 14.9431 14.9539 14.7391 14.9539C14.6343 14.9539 14.5287 14.9267 14.4319 14.8699L11.4159 13.0707C11.2351 12.9619 11.1231 12.7659 11.1231 12.5547V8.67632C11.1231 8.34512 11.3919 8.07632 11.7231 8.07632Z" fill="#101820"/>
</svg>
