<svg width="37" height="36" viewBox="0 0 37 36" fill="none" xmlns="http://www.w3.org/2000/svg">
<path d="M6 6H36L32.25 22.25H9.75M32.25 27.25H11L4.75 1H1" stroke="white" stroke-width="2" stroke-linecap="round" stroke-linejoin="round"/>
<path d="M29.75 34.75C31.1307 34.75 32.25 33.6307 32.25 32.25C32.25 30.8693 31.1307 29.75 29.75 29.75C28.3693 29.75 27.25 30.8693 27.25 32.25C27.25 33.6307 28.3693 34.75 29.75 34.75Z" stroke="white" stroke-width="2" stroke-linecap="round" stroke-linejoin="round"/>
<path d="M13.5 34.75C14.8807 34.75 16 33.6307 16 32.25C16 30.8693 14.8807 29.75 13.5 29.75C12.1193 29.75 11 30.8693 11 32.25C11 33.6307 12.1193 34.75 13.5 34.75Z" stroke="white" stroke-width="2" stroke-linecap="round" stroke-linejoin="round"/>
</svg>
