<svg width="24" height="24" viewBox="0 0 24 24" fill="none" xmlns="http://www.w3.org/2000/svg">
<g opacity="0.44">
<path d="M22.8 17.4V6.6C22.8 5.604 21.996 4.8 21 4.8H4.188C3.192 4.8 2.388 5.604 2.388 6.6V17.4C2.388 18.396 3.192 19.2 4.188 19.2H21C21.996 19.2 22.8 18.396 22.8 17.4ZM21.228 6.468C21.624 6.864 21.408 7.272 21.192 7.476L16.32 11.94L21 16.812C21.144 16.98 21.24 17.244 21.072 17.424C20.916 17.616 20.556 17.604 20.4 17.484L15.156 13.008L12.588 15.348L10.032 13.008L4.788 17.484C4.632 17.604 4.272 17.616 4.116 17.424C3.948 17.244 4.044 16.98 4.188 16.812L8.868 11.94L3.996 7.476C3.78 7.272 3.564 6.864 3.96 6.468C4.356 6.072 4.764 6.264 5.1 6.552L12.588 12.6L20.088 6.552C20.424 6.264 20.832 6.072 21.228 6.468Z" fill="#121212"/>
</g>
</svg>