<?xml version="1.0" ?><svg id="Layer_2" style="enable-background:new 0 0 500 500;" version="1.1" viewBox="0 0 500 500" xml:space="preserve" xmlns="http://www.w3.org/2000/svg" xmlns:xlink="http://www.w3.org/1999/xlink"><style type="text/css">
	.st0{fill:none;}
</style><g><circle class="st0" cx="289" cy="189.9" r="122.6"/><path d="M288.9,325.9c-75,0-136-61-136-136c0-75,61-136.1,136-136.1c75,0,136.1,61,136.1,136.1C425,264.9,364,325.9,288.9,325.9z    M288.9,80.8c-60.1,0-109.1,48.9-109.1,109.1c0,60.1,48.9,109.1,109.1,109.1C349.1,299,398,250,398,189.9   C398,129.7,349.1,80.8,288.9,80.8z"/></g><g><path d="M294.1,254.5h-35.7v-27h35.7c6.7,0,12.1-5.4,12.1-12.1c0-6.6-5.4-12-12.1-12h-10.2c-21.5,0-39-17.5-39-39   c0-21.5,17.5-39,39-39h35.7v27h-35.7c-6.7,0-12.1,5.4-12.1,12c0,6.7,5.4,12.1,12.1,12.1h10.2c21.5,0,39,17.5,39,39   C333.1,236.9,315.6,254.5,294.1,254.5z"/></g><g><rect height="30.7" width="27" x="275.5" y="108.2"/></g><g><rect height="30.7" width="27" x="275.5" y="241"/></g><g><g><path d="M344.7,306.7v139.4H75V95.5h129l-21.9,27H102v296.7h215.8V312.5L344.7,306.7z"/></g></g><g><g><path d="M344.7,306.7v139.4H75V95.5h129l-21.9,27H102v296.7h215.8V312.5L344.7,306.7z"/></g></g><g><rect height="27" width="134.9" x="142.4" y="338.3"/></g><g><polyline points="236.8,311.3 142.4,311.3 142.4,284.3 206.5,284.3  "/></g><g><polyline points="179.5,257.3 142.4,257.3 142.4,230.4 168.2,230.4  "/></g></svg>