<?xml version="1.0" ?><svg fill="none" height="24" viewBox="0 0 24 24" width="24" xmlns="http://www.w3.org/2000/svg"><g id="Tractor"><path clip-rule="evenodd" d="M4.25 4C4.25 3.58579 4.58579 3.25 5 3.25H12C12.3537 3.25 12.6593 3.49705 12.7334 3.84285L14.2334 10.8429C14.2808 11.0643 14.2256 11.2954 14.0832 11.4715C13.9409 11.6476 13.7265 11.75 13.5 11.75H9C8.58579 11.75 8.25 11.4142 8.25 11C8.25 10.5858 8.58579 10.25 9 10.25H12.5723L11.3937 4.75H5.75V10C5.75 10.4142 5.41421 10.75 5 10.75C4.58579 10.75 4.25 10.4142 4.25 10V4Z" fill="black" fill-rule="evenodd" id="Rectangle 33 (Stroke)"/><path clip-rule="evenodd" d="M10.25 11C10.25 10.5858 10.5858 10.25 11 10.25H19C21.6234 10.25 23.75 12.3766 23.75 15V16C23.75 16.9665 22.9665 17.75 22 17.75H21C20.5858 17.75 20.25 17.4142 20.25 17C20.25 16.5858 20.5858 16.25 21 16.25H22C22.1381 16.25 22.25 16.1381 22.25 16V15C22.25 13.2051 20.7949 11.75 19 11.75H11C10.5858 11.75 10.25 11.4142 10.25 11ZM11.25 17C11.25 16.5858 11.5858 16.25 12 16.25H16C16.4142 16.25 16.75 16.5858 16.75 17C16.75 17.4142 16.4142 17.75 16 17.75H12C11.5858 17.75 11.25 17.4142 11.25 17Z" fill="black" fill-rule="evenodd" id="Rectangle 34 (Stroke)"/><path clip-rule="evenodd" d="M18.5 16.75C17.5335 16.75 16.75 17.5335 16.75 18.5C16.75 19.4665 17.5335 20.25 18.5 20.25C19.4665 20.25 20.25 19.4665 20.25 18.5C20.25 17.5335 19.4665 16.75 18.5 16.75ZM15.25 18.5C15.25 16.7051 16.7051 15.25 18.5 15.25C20.2949 15.25 21.75 16.7051 21.75 18.5C21.75 20.2949 20.2949 21.75 18.5 21.75C16.7051 21.75 15.25 20.2949 15.25 18.5Z" fill="black" fill-rule="evenodd" id="Ellipse 13 (Stroke)"/><path clip-rule="evenodd" d="M5 13.75C3.20507 13.75 1.75 15.2051 1.75 17C1.75 18.7949 3.20507 20.25 5 20.25C6.79493 20.25 8.25 18.7949 8.25 17C8.25 15.2051 6.79493 13.75 5 13.75ZM0.25 17C0.25 14.3766 2.37665 12.25 5 12.25C7.62335 12.25 9.75 14.3766 9.75 17C9.75 19.6234 7.62335 21.75 5 21.75C2.37665 21.75 0.25 19.6234 0.25 17Z" fill="black" fill-rule="evenodd" id="Ellipse 14 (Stroke)"/><path clip-rule="evenodd" d="M5 10.75C4.37824 10.75 3.77895 10.8406 3.21394 11.0087C2.81693 11.1269 2.39931 10.9008 2.28116 10.5038C2.163 10.1068 2.38906 9.68919 2.78606 9.57104C3.48846 9.36199 4.23182 9.25 5 9.25C9.28021 9.25 12.75 12.7198 12.75 17C12.75 17.4142 12.4142 17.75 12 17.75C11.5858 17.75 11.25 17.4142 11.25 17C11.25 13.5482 8.45178 10.75 5 10.75Z" fill="black" fill-rule="evenodd" id="Ellipse 15 (Stroke)"/><path clip-rule="evenodd" d="M2.25 4C2.25 3.58579 2.58579 3.25 3 3.25H14C14.4142 3.25 14.75 3.58579 14.75 4C14.75 4.41421 14.4142 4.75 14 4.75H3C2.58579 4.75 2.25 4.41421 2.25 4Z" fill="black" fill-rule="evenodd" id="Vector 38 (Stroke)"/><path clip-rule="evenodd" d="M19 7.75C18.8619 7.75 18.75 7.86193 18.75 8V11C18.75 11.4142 18.4142 11.75 18 11.75C17.5858 11.75 17.25 11.4142 17.25 11V8C17.25 7.0335 18.0335 6.25 19 6.25H19.5C19.9142 6.25 20.25 6.58579 20.25 7C20.25 7.41421 19.9142 7.75 19.5 7.75H19Z" fill="black" fill-rule="evenodd" id="Vector 39 (Stroke)"/></g></svg>