<?xml version="1.0" ?><svg viewBox="0 0 64 64" xmlns="http://www.w3.org/2000/svg"><title/><g data-name="11-insurance" id="_11-insurance"><path d="M28.554,39.879,22,43l-6.554-3.121A25.34,25.34,0,0,1,1,17H1V7H1A39.713,39.713,0,0,0,21.432,1.341h0a1.1,1.1,0,0,1,1.134,0h0A39.713,39.713,0,0,0,43,7h0V17h0A25.34,25.34,0,0,1,28.554,39.879Z" style="fill:none;stroke:#000;stroke-linejoin:round;stroke-width:2px"/><polygon points="34 18 26 18 26 10 18 10 18 18 10 18 10 26 18 26 18 34 26 34 26 26 34 26 34 18" style="fill:none;stroke:#000;stroke-linejoin:round;stroke-width:2px"/><path d="M46,23.177A39.713,39.713,0,0,0,63,27h0V37h0A25.34,25.34,0,0,1,48.554,59.879L42,63l-6.554-3.121A25.335,25.335,0,0,1,22.652,46" style="fill:none;stroke:#000;stroke-linejoin:round;stroke-width:2px"/><polyline points="30 42 30 46 38 46 38 54 46 54 46 46 54 46 54 38 46 38 46 30 42 30" style="fill:none;stroke:#000;stroke-linejoin:round;stroke-width:2px"/><polyline points="38 35 38 38 35 38" style="fill:none;stroke:#000;stroke-linejoin:round;stroke-width:2px"/></g></svg>