<svg width="24" height="24" viewBox="0 0 24 24" fill="none" xmlns="http://www.w3.org/2000/svg">
<path d="M10.134 10.5337L11.7435 9.05775C12.184 8.65367 12.4937 8.12723 12.6329 7.54595C12.7721 6.96466 12.7346 6.35504 12.525 5.79525L11.8372 3.95925C11.5806 3.27421 11.0723 2.71283 10.4161 2.38952C9.75988 2.06621 9.00507 2.00532 8.3055 2.21925C5.7315 3.00675 3.753 5.39925 4.362 8.241C4.7625 10.11 5.52825 12.456 6.981 14.9527C8.1983 17.0555 9.72972 18.96 11.5222 20.6002C13.6747 22.5592 16.7497 22.0695 18.7282 20.2252C19.2586 19.7308 19.5804 19.0526 19.6281 18.3291C19.6757 17.6055 19.4457 16.891 18.9847 16.3312L17.724 14.7997C17.344 14.3379 16.8347 14.0002 16.2614 13.8299C15.6881 13.6597 15.077 13.6647 14.5065 13.8442L12.4245 14.5005C12.3442 14.418 12.252 14.3197 12.15 14.2065C11.722 13.7329 11.3433 13.217 11.0197 12.6667C10.705 12.1113 10.4477 11.5253 10.2517 10.9177C10.2099 10.7906 10.1706 10.6625 10.134 10.5337Z" fill="#21A86E"/>
</svg>