<svg width="33" height="33" viewBox="0 0 33 33" fill="none" xmlns="http://www.w3.org/2000/svg">
<path d="M6.70312 5.15625C5.47235 5.15625 4.29199 5.64517 3.42171 6.51546C2.55142 7.38574 2.0625 8.5661 2.0625 9.79688V11.3438H30.9375V9.79688C30.9375 8.5661 30.4486 7.38574 29.5783 6.51546C28.708 5.64517 27.5276 5.15625 26.2969 5.15625H6.70312ZM2.0625 23.2031V13.4062H30.9375V23.2031C30.9375 24.4339 30.4486 25.6143 29.5783 26.4845C28.708 27.3548 27.5276 27.8438 26.2969 27.8438H6.70312C5.47235 27.8438 4.29199 27.3548 3.42171 26.4845C2.55142 25.6143 2.0625 24.4339 2.0625 23.2031ZM21.6562 19.5938C21.3827 19.5938 21.1204 19.7024 20.927 19.8958C20.7336 20.0892 20.625 20.3515 20.625 20.625C20.625 20.8985 20.7336 21.1608 20.927 21.3542C21.1204 21.5476 21.3827 21.6562 21.6562 21.6562H24.75C25.0235 21.6562 25.2858 21.5476 25.4792 21.3542C25.6726 21.1608 25.7812 20.8985 25.7812 20.625C25.7812 20.3515 25.6726 20.0892 25.4792 19.8958C25.2858 19.7024 25.0235 19.5938 24.75 19.5938H21.6562Z" fill="black"/>
</svg>