<svg width="52" height="52" viewBox="0 0 52 52" fill="none" xmlns="http://www.w3.org/2000/svg">
<g clip-path="url(#clip0_33_39)">
<path d="M9.34375 52C9.34375 46.7543 9.35086 41.5086 9.33157 36.2639C9.33157 35.7908 9.46563 35.5353 9.89524 35.3481C14.2411 33.4503 18.2945 33.9235 22.0452 36.8308C22.3274 37.0648 22.6844 37.189 23.0506 37.1808C25.8761 37.1666 28.7016 37.1503 31.527 37.1808C32.9936 37.1981 34.0864 37.9236 34.6958 39.2567C35.3052 40.5897 35.1091 41.8739 34.188 43.0096C33.4831 43.8725 32.5356 44.2755 31.4245 44.2775C28.7676 44.2775 26.1107 44.2775 23.4538 44.2775C22.292 44.2775 21.5394 45.3256 21.9538 46.3493C22.1995 46.9548 22.6718 47.3099 23.3208 47.313C26.1798 47.3262 29.0418 47.3811 31.8987 47.2947C34.9802 47.2 37.6025 44.7028 37.9925 41.6287C38.0402 41.2532 38.1956 41.0426 38.5257 40.8604C41.1978 39.4063 43.8577 37.9298 46.5217 36.4614C48.8252 35.1924 51.2271 36.2182 51.9228 38.7662C51.9427 38.8116 51.9687 38.854 52 38.8924V40.0117C51.6801 41.4689 50.7122 42.3268 49.4386 43.0126C46.3166 44.6957 43.2646 46.5091 40.1314 48.1688C37.5365 49.5415 35.1792 51.4251 32.1953 51.9959L9.34375 52Z" fill="white"/>
<path d="M0 34.937C0.40625 34.0588 1.09891 33.7505 2.04547 33.8095C2.88844 33.8614 3.73649 33.8177 4.58453 33.8207C5.69461 33.8207 6.29789 34.4313 6.29789 35.5506C6.29789 41.0327 6.29789 46.5142 6.29789 51.9949H1.11719C0.626335 51.7631 0.231332 51.3674 0 50.8756V34.937Z" fill="white"/>
<path d="M47.9375 32.8835C46.7614 32.9853 45.7559 33.3923 44.7891 33.9398C42.3841 35.284 39.9659 36.6059 37.5091 37.9613C37.4278 37.828 37.3506 37.7069 37.2785 37.5827C35.9775 35.3563 34.0448 34.1687 31.461 34.1331C28.9738 34.0985 26.4845 34.1331 23.9972 34.1178C23.7664 34.125 23.5385 34.0649 23.3411 33.9449C20.832 32.1147 17.8005 31.1444 14.6971 31.178C14.6474 31.178 14.5955 31.1658 14.4523 31.1465C14.5539 30.2306 14.6088 29.3148 14.757 28.399C15.5838 23.1574 17.3316 18.2556 20.2302 13.7894C21.2002 12.2945 22.3082 10.9055 23.6265 9.69969C23.8794 9.4687 23.8763 9.29265 23.7484 9.00671C22.749 6.80531 21.7574 4.60053 20.7736 2.39235C20.1642 1.02166 20.8335 -0.00712585 22.3438 -0.00712585H40.0664C41.5431 -0.00712585 42.2165 1.02878 41.6142 2.37506C40.6277 4.5812 39.6385 6.78597 38.6466 8.9894C38.5541 9.19292 38.415 9.37203 38.6689 9.61116C41.5472 12.3149 43.5134 15.6302 45.0257 19.2335C46.7827 23.4179 47.8522 27.762 47.9456 32.3208C47.9375 32.4958 47.9375 32.6637 47.9375 32.8835ZM35.75 24.7631C35.75 21.9871 33.8102 20.0171 31.2589 19.9082C30.3093 19.8675 29.6471 19.2274 29.6593 18.3614C29.6698 17.9769 29.8232 17.6102 30.0894 17.3329C30.3555 17.0557 30.7154 16.888 31.0984 16.8625C31.9597 16.8137 32.6219 17.4527 32.7041 18.4001C32.7793 19.3159 33.4445 19.9428 34.2936 19.9041C35.1427 19.8654 35.7825 19.1714 35.7429 18.2678C35.6677 16.546 34.8847 15.215 33.3653 14.401C32.8717 14.1354 32.6544 13.8922 32.6859 13.3121C32.7265 12.6446 32.3578 12.1511 31.7312 11.8967C30.7095 11.4825 29.6502 12.2365 29.6705 13.3966C29.6796 13.8769 29.5537 14.116 29.0987 14.3419C28.5599 14.6097 28.0803 14.9833 27.6885 15.4405C27.2966 15.8977 27.0005 16.4292 26.8178 17.0033C26.635 17.5774 26.5693 18.1825 26.6246 18.7826C26.6799 19.3826 26.855 19.9654 27.1395 20.4963C27.9835 22.0706 29.3434 22.8724 31.1269 22.9538C32.1801 23.0027 32.9042 23.8849 32.6584 24.8242C32.5745 25.1732 32.3711 25.4818 32.0838 25.6963C31.7964 25.9108 31.4431 26.0177 31.0852 25.9985C30.3164 25.9476 29.7304 25.3472 29.6634 24.5372C29.575 23.54 28.924 22.9091 28.0465 22.9589C27.1487 23.0149 26.5444 23.7557 26.6246 24.7702C26.7546 26.3821 27.5092 27.65 28.9321 28.4224C29.4734 28.7165 29.7091 28.9943 29.6816 29.6262C29.6491 30.3884 30.2981 31.003 31.0466 31.0742C31.4037 31.1062 31.7604 31.0095 32.0527 30.8015C32.345 30.5935 32.5536 30.2879 32.6412 29.9396C32.6996 29.6935 32.7191 29.4398 32.6991 29.1876C32.6788 28.8884 32.8006 28.7572 33.0637 28.6289C34.7943 27.7955 35.6556 26.3841 35.75 24.7631Z" fill="white"/>
</g>
<defs>
<clipPath id="clip0_33_39">
<rect width="52" height="52" fill="white"/>
</clipPath>
</defs>
</svg>