<svg width="51" height="51" viewBox="0 0 51 51" fill="none" xmlns="http://www.w3.org/2000/svg">
<g clip-path="url(#clip0_32_32)">
<path d="M11.9531 0H39.0469C39.1025 0.033353 39.1621 0.059777 39.2242 0.0786892C42.4266 0.642478 44.5712 3.09885 44.5971 6.34014C44.63 10.6722 44.6081 15.0062 44.5971 19.3372C44.5918 19.5428 44.5072 19.7384 44.361 19.883C39.0605 24.3847 33.7513 28.8758 28.4335 33.3562C28.3531 33.4105 28.2616 33.4464 28.1657 33.4612C28.0698 33.476 27.9717 33.4694 27.8787 33.4419C26.3543 32.8213 24.6477 32.8213 23.1233 33.4419C23.03 33.4683 22.9321 33.4742 22.8363 33.459C22.7405 33.4439 22.6491 33.4081 22.5685 33.3542C22.0047 32.9189 21.4728 32.4438 20.9259 31.9826C16.1746 27.9623 11.4265 23.9398 6.68179 19.9149C6.52717 19.78 6.4299 19.5912 6.40986 19.387C6.39592 15.0042 6.36802 10.6213 6.41484 6.23854C6.43875 3.88975 7.51054 2.04797 9.55353 0.875564C10.2787 0.459197 11.1483 0.285879 11.9531 0ZM18.9965 7.67988C18.9965 7.05533 19.0234 6.50648 18.9905 5.96262C18.9357 5.07211 18.2594 4.45055 17.4346 4.4874C16.6099 4.52426 16.0401 5.1508 16.0182 6.04131C16.0062 6.60211 16.0182 7.16291 16.0182 7.71773C15.8618 7.76953 15.7532 7.80937 15.6427 7.84224C13.7331 8.40304 12.6345 10.1074 12.8586 12.1623C13.0488 13.9025 14.6426 15.3398 16.5063 15.4395C17.0521 15.4693 17.602 15.4494 18.1478 15.4614C18.5712 15.4703 18.9337 15.6078 19.118 16.0262C19.3929 16.6537 18.9537 17.2573 18.1717 17.2772C17.1597 17.3031 16.1467 17.2683 15.1356 17.2942C14.2392 17.3171 13.6345 17.9187 13.6186 18.7435C13.6017 19.5922 14.2023 20.2077 15.1187 20.2655C15.3966 20.2825 15.6755 20.2655 16.0152 20.2655C16.0152 20.8363 16.0092 21.3473 16.0152 21.8593C16.0301 22.8066 16.6278 23.461 17.4804 23.4749C18.3331 23.4889 18.9616 22.8275 18.9975 21.8961C19.0144 21.4648 19.0194 21.0325 18.9975 20.6012C18.9796 20.2924 19.0971 20.1818 19.3959 20.1032C21.1042 19.6141 22.3513 17.854 22.185 16.2054C21.9808 14.1565 20.6391 12.7251 18.7066 12.5398C18.0153 12.4731 17.3121 12.5 16.6218 12.4552C16.413 12.4473 16.2149 12.3608 16.0671 12.213C15.9193 12.0652 15.8328 11.8671 15.8249 11.6583C15.7988 11.45 15.8511 11.2394 15.9717 11.0676C16.0923 10.8958 16.2726 10.7751 16.4774 10.7289C16.6543 10.6877 16.8356 10.6683 17.0173 10.6712C17.9636 10.6662 18.9098 10.6781 19.8541 10.6652C20.7506 10.6532 21.4001 10.0157 21.4021 9.18299C21.4021 8.38014 20.7626 7.73268 19.9079 7.68885C19.623 7.66992 19.3441 7.67988 18.9965 7.67988ZM32.6569 15.4614C33.9658 15.4614 35.2767 15.4853 36.5845 15.4454C36.9591 15.4292 37.3225 15.3133 37.6374 15.1097C38.1474 14.7721 38.3058 14.0868 38.1135 13.505C37.9063 12.8745 37.3455 12.4811 36.5716 12.4781C34.003 12.4694 31.4341 12.4694 28.8648 12.4781C27.8747 12.4781 27.1834 13.1395 27.2053 14.0091C27.2272 14.8787 27.8846 15.4554 28.8787 15.4604C30.1378 15.4663 31.3979 15.4614 32.6569 15.4614ZM32.6719 9.06445C33.9668 9.06445 35.2617 9.06445 36.5507 9.06445C37.5258 9.06445 38.1783 8.45783 38.1793 7.57629C38.1803 6.69475 37.5248 6.08215 36.5527 6.08215C33.9827 6.07551 31.4131 6.07551 28.8439 6.08215C27.8856 6.08215 27.2023 6.71766 27.2023 7.57629C27.2023 8.43492 27.8767 9.06146 28.8429 9.07043C30.1219 9.07242 31.3979 9.06445 32.6719 9.06445ZM32.6878 18.8919C31.4287 18.8919 30.1687 18.8869 28.9096 18.8919C27.8827 18.8979 27.2163 19.4816 27.2013 20.3622C27.1864 21.2427 27.8826 21.8563 28.9276 21.8772H29.077C31.4961 21.8772 33.9153 21.8772 36.3345 21.8772C36.5345 21.8802 36.7344 21.8668 36.9322 21.8374C37.3069 21.7876 37.6471 21.5927 37.8796 21.2947C38.1121 20.9966 38.2183 20.6192 38.1753 20.2436C38.1135 19.4627 37.5209 18.9078 36.6682 18.8959C35.3424 18.88 34.0166 18.8949 32.6908 18.8949L32.6878 18.8919Z" fill="white"/>
<path d="M5.57812 51L3.10881 50.2499C3.40763 50.0398 3.54908 49.9322 3.69949 49.8316L23.2737 36.7827C24.9133 35.687 26.0867 35.687 27.7263 36.7827L47.3005 49.8316C47.4509 49.9312 47.5993 50.0398 47.8912 50.2499L45.4219 51H5.57812Z" fill="white"/>
<path d="M0 18.2285C1.67643 19.634 3.35783 21.0335 5.02928 22.446C9.98318 26.6296 14.9341 30.8191 19.882 35.0147C19.9577 35.0784 20.0295 35.1472 20.1589 35.2657L1.01103 48.0316C0.398437 47.2547 0.242051 46.3184 0 45.4219V18.2285Z" fill="white"/>
<path d="M51 45.4219C50.7311 46.1998 50.4641 46.9788 50.1902 47.7557C50.1402 47.8582 50.0805 47.9556 50.0119 48.0466L30.8381 35.2617C31.0831 35.0496 31.2883 34.8633 31.4975 34.691L50.5677 18.5542C50.7052 18.4367 50.8556 18.3351 51 18.2255V45.4219Z" fill="white"/>
<path d="M0 14.2442L3.3658 11.7719V17.1189C2.37867 16.2852 1.44832 15.4962 0.513985 14.7133C0.352618 14.5778 0.171328 14.4663 0 14.3438V14.2442Z" fill="white"/>
<path d="M51 14.3437C50.1832 15.0125 49.3661 15.6812 48.5486 16.3499C48.2587 16.588 47.9749 16.833 47.6252 17.1278V11.7679L51 14.2441V14.3437Z" fill="white"/>
</g>
<defs>
<clipPath id="clip0_32_32">
<rect width="51" height="51" fill="white"/>
</clipPath>
</defs>
</svg>