<svg width="29" height="31" viewBox="0 0 29 31" fill="none" xmlns="http://www.w3.org/2000/svg">
<path d="M4.24999 27.4583H9.375V17.2083H19.625V27.4583H24.75V12.0833L14.5 4.39579L4.24999 12.0833V27.4583ZM4.24999 30.875C3.31041 30.875 2.50636 30.5407 1.83783 29.8722C1.16816 29.2025 0.833328 28.3979 0.833328 27.4583V12.0833C0.833328 11.5423 0.95462 11.0298 1.1972 10.5458C1.43865 10.0618 1.77291 9.66315 2.2 9.34996L12.45 1.66246C12.7632 1.43468 13.0906 1.26385 13.4323 1.14996C13.774 1.03607 14.1299 0.979126 14.5 0.979126C14.8701 0.979126 15.226 1.03607 15.5677 1.14996C15.9094 1.26385 16.2368 1.43468 16.55 1.66246L26.8 9.34996C27.2271 9.66315 27.5619 10.0618 27.8045 10.5458C28.0459 11.0298 28.1667 11.5423 28.1667 12.0833V27.4583C28.1667 28.3979 27.8324 29.2025 27.1639 29.8722C26.4942 30.5407 25.6896 30.875 24.75 30.875H16.2083V20.625H12.7917V30.875H4.24999Z" fill="#21A86E"/>
</svg>