<svg width="26" height="29" viewBox="0 0 26 29" fill="none" xmlns="http://www.w3.org/2000/svg">
<path d="M3.25 25.6857H8.125V15.7429H17.875V25.6857H22.75V10.7714L13 3.31429L3.25 10.7714V25.6857ZM3.25 29C2.35625 29 1.59142 28.6758 0.9555 28.0273C0.3185 27.3777 0 26.5971 0 25.6857V10.7714C0 10.2467 0.115375 9.74952 0.346125 9.28C0.575791 8.81048 0.89375 8.42381 1.3 8.12L11.05 0.662857C11.3479 0.441905 11.6594 0.27619 11.9844 0.165714C12.3094 0.0552379 12.6479 0 13 0C13.3521 0 13.6906 0.0552379 14.0156 0.165714C14.3406 0.27619 14.6521 0.441905 14.95 0.662857L24.7 8.12C25.1063 8.42381 25.4247 8.81048 25.6555 9.28C25.8852 9.74952 26 10.2467 26 10.7714V25.6857C26 26.5971 25.682 27.3777 25.0461 28.0273C24.4091 28.6758 23.6437 29 22.75 29H14.625V19.0571H11.375V29H3.25Z" fill="white"/>
</svg>