<svg width="33" height="33" viewBox="0 0 33 33" fill="none" xmlns="http://www.w3.org/2000/svg">
<path fill-rule="evenodd" clip-rule="evenodd" d="M22 12.375C22 13.8337 21.4205 15.2326 20.3891 16.2641C19.3576 17.2955 17.9587 17.875 16.5 17.875C15.0413 17.875 13.6424 17.2955 12.6109 16.2641C11.5795 15.2326 11 13.8337 11 12.375C11 10.9163 11.5795 9.51736 12.6109 8.48591C13.6424 7.45446 15.0413 6.875 16.5 6.875C17.9587 6.875 19.3576 7.45446 20.3891 8.48591C21.4205 9.51736 22 10.9163 22 12.375ZM19.25 12.375C19.25 13.1043 18.9603 13.8038 18.4445 14.3195C17.9288 14.8353 17.2293 15.125 16.5 15.125C15.7707 15.125 15.0712 14.8353 14.5555 14.3195C14.0397 13.8038 13.75 13.1043 13.75 12.375C13.75 11.6457 14.0397 10.9462 14.5555 10.4305C15.0712 9.91473 15.7707 9.625 16.5 9.625C17.2293 9.625 17.9288 9.91473 18.4445 10.4305C18.9603 10.9462 19.25 11.6457 19.25 12.375Z" fill="#21A86E"/>
<path fill-rule="evenodd" clip-rule="evenodd" d="M16.5 1.375C8.14688 1.375 1.375 8.14688 1.375 16.5C1.375 24.8531 8.14688 31.625 16.5 31.625C24.8531 31.625 31.625 24.8531 31.625 16.5C31.625 8.14688 24.8531 1.375 16.5 1.375ZM4.125 16.5C4.125 19.3738 5.10537 22.0192 6.7485 24.1203C7.90244 22.6049 9.39111 21.3768 11.0982 20.5319C12.8053 19.6871 14.6846 19.2483 16.5894 19.25C18.4695 19.2482 20.3251 19.6756 22.015 20.4996C23.7049 21.3236 25.1845 22.5224 26.3409 24.0047C27.5322 22.4422 28.3344 20.6184 28.681 18.6843C29.0276 16.7502 28.9086 14.7614 28.3339 12.8824C27.7593 11.0033 26.7454 9.28819 25.3763 7.8788C24.0072 6.46941 22.3221 5.40631 20.4605 4.77745C18.599 4.14859 16.6144 3.97206 14.6711 4.26246C12.7277 4.55286 10.8815 5.30185 9.28506 6.44745C7.68865 7.59305 6.38799 9.10232 5.49069 10.8504C4.59339 12.5985 4.12525 14.5351 4.125 16.5ZM16.5 28.875C13.6592 28.8793 10.9041 27.902 8.701 26.1085C9.58778 24.839 10.7681 23.8025 12.1415 23.0872C13.5149 22.3719 15.0408 21.9989 16.5894 22C18.1186 21.9988 19.626 22.3624 20.9865 23.0607C22.347 23.759 23.5213 24.7718 24.4117 26.015C22.1915 27.8667 19.3911 28.8791 16.5 28.875Z" fill="#21A86E"/>
</svg>