<svg width="31" height="31" viewBox="0 0 31 31" fill="none" xmlns="http://www.w3.org/2000/svg">
<path fill-rule="evenodd" clip-rule="evenodd" d="M21 11.375C21 12.8337 20.4205 14.2326 19.3891 15.2641C18.3576 16.2955 16.9587 16.875 15.5 16.875C14.0413 16.875 12.6424 16.2955 11.6109 15.2641C10.5795 14.2326 10 12.8337 10 11.375C10 9.91631 10.5795 8.51736 11.6109 7.48591C12.6424 6.45446 14.0413 5.875 15.5 5.875C16.9587 5.875 18.3576 6.45446 19.3891 7.48591C20.4205 8.51736 21 9.91631 21 11.375ZM18.25 11.375C18.25 12.1043 17.9603 12.8038 17.4445 13.3195C16.9288 13.8353 16.2293 14.125 15.5 14.125C14.7707 14.125 14.0712 13.8353 13.5555 13.3195C13.0397 12.8038 12.75 12.1043 12.75 11.375C12.75 10.6457 13.0397 9.94618 13.5555 9.43046C14.0712 8.91473 14.7707 8.625 15.5 8.625C16.2293 8.625 16.9288 8.91473 17.4445 9.43046C17.9603 9.94618 18.25 10.6457 18.25 11.375Z" fill="white"/>
<path fill-rule="evenodd" clip-rule="evenodd" d="M15.5 0.375C7.14688 0.375 0.375 7.14688 0.375 15.5C0.375 23.8531 7.14688 30.625 15.5 30.625C23.8531 30.625 30.625 23.8531 30.625 15.5C30.625 7.14688 23.8531 0.375 15.5 0.375ZM3.125 15.5C3.125 18.3738 4.10537 21.0192 5.7485 23.1203C6.90244 21.6049 8.39111 20.3768 10.0982 19.5319C11.8053 18.6871 13.6846 18.2483 15.5894 18.25C17.4695 18.2482 19.3251 18.6756 21.015 19.4996C22.7049 20.3236 24.1845 21.5224 25.3409 23.0047C26.5322 21.4422 27.3344 19.6184 27.681 17.6843C28.0276 15.7502 27.9086 13.7614 27.3339 11.8824C26.7593 10.0033 25.7454 8.28819 24.3763 6.8788C23.0072 5.46941 21.3221 4.40631 19.4605 3.77745C17.599 3.14859 15.6144 2.97206 13.6711 3.26246C11.7277 3.55286 9.88146 4.30185 8.28506 5.44745C6.68865 6.59305 5.38799 8.10232 4.49069 9.85039C3.59339 11.5985 3.12525 13.5351 3.125 15.5ZM15.5 27.875C12.6592 27.8793 9.90412 26.902 7.701 25.1085C8.58778 23.839 9.76809 22.8025 11.1415 22.0872C12.5149 21.3719 14.0408 20.9989 15.5894 21C17.1186 20.9988 18.626 21.3624 19.9865 22.0607C21.347 22.759 22.5213 23.7718 23.4117 25.015C21.1915 26.8667 18.3911 27.8791 15.5 27.875Z" fill="white"/>
</svg>