<svg width="28" height="29" viewBox="0 0 28 29" fill="none" xmlns="http://www.w3.org/2000/svg">
<path d="M25.3625 15.4075C25.1421 15.1566 25.0205 14.834 25.0205 14.5C25.0205 14.166 25.1421 13.8435 25.3625 13.5925L27.1225 11.6125C27.3164 11.3962 27.4369 11.124 27.4665 10.835C27.4962 10.546 27.4335 10.255 27.2875 10.0038L24.5375 5.24629C24.393 4.99538 24.173 4.79649 23.9088 4.67798C23.6446 4.55947 23.3497 4.52738 23.0663 4.58629L20.4813 5.10879C20.1523 5.17675 19.8099 5.12197 19.5186 4.95479C19.2273 4.7876 19.0072 4.51958 18.9 4.20129L18.0613 1.68504C17.969 1.41194 17.7933 1.17473 17.5589 1.00695C17.3245 0.839165 17.0433 0.749295 16.755 0.750039H11.255C10.9552 0.734389 10.6584 0.817313 10.4102 0.986146C10.1619 1.15498 9.97567 1.40044 9.88 1.68504L9.11 4.20129C9.00275 4.51958 8.78271 4.7876 8.49141 4.95479C8.2001 5.12197 7.85768 5.17675 7.52875 5.10879L4.875 4.58629C4.60626 4.54831 4.33229 4.59072 4.0876 4.70817C3.84292 4.82562 3.63847 5.01285 3.5 5.24629L0.750002 10.0038C0.600347 10.2522 0.533058 10.5415 0.557753 10.8305C0.582449 11.1194 0.697865 11.3931 0.887502 11.6125L2.63375 13.5925C2.85419 13.8435 2.97576 14.166 2.97576 14.5C2.97576 14.834 2.85419 15.1566 2.63375 15.4075L0.887502 17.3875C0.697865 17.6069 0.582449 17.8807 0.557753 18.1696C0.533058 18.4585 0.600347 18.7479 0.750002 18.9963L3.5 23.7538C3.64451 24.0047 3.86454 24.2036 4.12872 24.3221C4.39291 24.4406 4.68776 24.4727 4.97125 24.4138L7.55625 23.8913C7.88518 23.8233 8.2276 23.8781 8.51891 24.0453C8.81021 24.2125 9.03025 24.4805 9.1375 24.7988L9.97625 27.315C10.0719 27.5996 10.2581 27.8451 10.5064 28.0139C10.7547 28.1828 11.0514 28.2657 11.3513 28.25H16.8513C17.1395 28.2508 17.4207 28.1609 17.6551 27.9931C17.8895 27.8253 18.0653 27.5881 18.1575 27.315L18.9963 24.7988C19.1035 24.4805 19.3235 24.2125 19.6148 24.0453C19.9062 23.8781 20.2486 23.8233 20.5775 23.8913L23.1625 24.4138C23.446 24.4727 23.7408 24.4406 24.005 24.3221C24.2692 24.2036 24.4892 24.0047 24.6338 23.7538L27.3838 18.9963C27.5297 18.7451 27.5924 18.4541 27.5628 18.1651C27.5331 17.8761 27.4127 17.6039 27.2188 17.3875L25.3625 15.4075ZM23.3138 17.25L24.4138 18.4875L22.6538 21.54L21.0313 21.21C20.0409 21.0076 19.0108 21.1758 18.1363 21.6828C17.2619 22.1897 16.604 23.0001 16.2875 23.96L15.765 25.5H12.245L11.75 23.9325C11.4336 22.9726 10.7757 22.1622 9.90118 21.6553C9.02672 21.1483 7.99656 20.9801 7.00625 21.1825L5.38375 21.5125L3.59625 18.4738L4.69625 17.2363C5.37269 16.48 5.74666 15.5009 5.74666 14.4863C5.74666 13.4716 5.37269 12.4926 4.69625 11.7363L3.59625 10.4988L5.35625 7.47379L6.97875 7.80379C7.96906 8.00622 8.99922 7.838 9.87368 7.33106C10.7482 6.82412 11.4061 6.01376 11.7225 5.05379L12.245 3.50004H15.765L16.2875 5.06754C16.604 6.02751 17.2619 6.83787 18.1363 7.34481C19.0108 7.85175 20.0409 8.01997 21.0313 7.81754L22.6538 7.48754L24.4138 10.54L23.3138 11.7775C22.6449 12.5321 22.2756 13.5055 22.2756 14.5138C22.2756 15.5221 22.6449 16.4955 23.3138 17.25ZM14.005 9.00004C12.9172 9.00004 11.8538 9.32261 10.9494 9.92696C10.0449 10.5313 9.33995 11.3903 8.92366 12.3953C8.50738 13.4003 8.39846 14.5061 8.61068 15.573C8.8229 16.6399 9.34673 17.6199 10.1159 18.3891C10.8851 19.1583 11.8651 19.6821 12.932 19.8944C13.9989 20.1066 15.1048 19.9977 16.1098 19.5814C17.1148 19.1651 17.9737 18.4601 18.5781 17.5557C19.1824 16.6512 19.505 15.5878 19.505 14.5C19.505 13.0413 18.9255 11.6424 17.8941 10.611C16.8626 9.5795 15.4637 9.00004 14.005 9.00004ZM14.005 17.25C13.4611 17.25 12.9294 17.0888 12.4772 16.7866C12.0249 16.4844 11.6725 16.0549 11.4643 15.5524C11.2562 15.0499 11.2017 14.497 11.3078 13.9635C11.414 13.4301 11.6759 12.9401 12.0605 12.5555C12.4451 12.1709 12.9351 11.909 13.4685 11.8029C14.002 11.6968 14.5549 11.7512 15.0574 11.9594C15.5599 12.1675 15.9894 12.52 16.2915 12.9722C16.5937 13.4245 16.755 13.9561 16.755 14.5C16.755 15.2294 16.4653 15.9289 15.9495 16.4446C15.4338 16.9603 14.7343 17.25 14.005 17.25Z" fill="white"/>
</svg>