<svg width="33" height="33" viewBox="0 0 33 33" fill="none" xmlns="http://www.w3.org/2000/svg">
<path d="M27.3625 17.4075C27.1421 17.1566 27.0205 16.834 27.0205 16.5C27.0205 16.166 27.1421 15.8434 27.3625 15.5925L29.1225 13.6125C29.3164 13.3962 29.4369 13.124 29.4665 12.8349C29.4962 12.5459 29.4335 12.2549 29.2875 12.0037L26.5375 7.24624C26.393 6.99533 26.173 6.79645 25.9088 6.67794C25.6446 6.55942 25.3497 6.52734 25.0663 6.58624L22.4813 7.10874C22.1523 7.17671 21.8099 7.12193 21.5186 6.95474C21.2273 6.78756 21.0072 6.51953 20.9 6.20124L20.0613 3.68499C19.969 3.41189 19.7933 3.17468 19.5589 3.0069C19.3245 2.83912 19.0433 2.74925 18.755 2.74999H13.255C12.9552 2.73434 12.6584 2.81727 12.4102 2.9861C12.1619 3.15493 11.9757 3.40039 11.88 3.68499L11.11 6.20124C11.0028 6.51953 10.7827 6.78756 10.4914 6.95474C10.2001 7.12193 9.85768 7.17671 9.52875 7.10874L6.875 6.58624C6.60626 6.54827 6.33229 6.59067 6.0876 6.70812C5.84292 6.82557 5.63847 7.01281 5.5 7.24624L2.75 12.0037C2.60035 12.2521 2.53306 12.5415 2.55775 12.8304C2.58245 13.1194 2.69787 13.3931 2.8875 13.6125L4.63375 15.5925C4.85419 15.8434 4.97576 16.166 4.97576 16.5C4.97576 16.834 4.85419 17.1566 4.63375 17.4075L2.8875 19.3875C2.69787 19.6069 2.58245 19.8806 2.55775 20.1696C2.53306 20.4585 2.60035 20.7479 2.75 20.9962L5.5 25.7537C5.64451 26.0047 5.86454 26.2035 6.12872 26.3221C6.39291 26.4406 6.68776 26.4727 6.97125 26.4137L9.55625 25.8912C9.88518 25.8233 10.2276 25.8781 10.5189 26.0452C10.8102 26.2124 11.0303 26.4805 11.1375 26.7987L11.9763 29.315C12.0719 29.5996 12.2581 29.8451 12.5064 30.0139C12.7547 30.1827 13.0514 30.2656 13.3513 30.25H18.8513C19.1395 30.2507 19.4207 30.1609 19.6551 29.9931C19.8895 29.8253 20.0653 29.5881 20.1575 29.315L20.9963 26.7987C21.1035 26.4805 21.3235 26.2124 21.6148 26.0452C21.9062 25.8781 22.2486 25.8233 22.5775 25.8912L25.1625 26.4137C25.446 26.4727 25.7408 26.4406 26.005 26.3221C26.2692 26.2035 26.4892 26.0047 26.6338 25.7537L29.3838 20.9962C29.5297 20.745 29.5924 20.4541 29.5628 20.165C29.5331 19.876 29.4127 19.6038 29.2188 19.3875L27.3625 17.4075ZM25.3138 19.25L26.4138 20.4875L24.6538 23.54L23.0313 23.21C22.0409 23.0076 21.0108 23.1758 20.1363 23.6827C19.2619 24.1897 18.604 25 18.2875 25.96L17.765 27.5H14.245L13.75 25.9325C13.4336 24.9725 12.7757 24.1622 11.9012 23.6552C11.0267 23.1483 9.99656 22.9801 9.00625 23.1825L7.38375 23.5125L5.59625 20.4737L6.69625 19.2362C7.37269 18.48 7.74666 17.5009 7.74666 16.4862C7.74666 15.4716 7.37269 14.4925 6.69625 13.7362L5.59625 12.4987L7.35625 9.47374L8.97875 9.80374C9.96906 10.0062 10.9992 9.83795 11.8737 9.33102C12.7482 8.82408 13.4061 8.01371 13.7225 7.05374L14.245 5.49999H17.765L18.2875 7.06749C18.604 8.02746 19.2619 8.83783 20.1363 9.34477C21.0108 9.8517 22.0409 10.0199 23.0313 9.81749L24.6538 9.48749L26.4138 12.54L25.3138 13.7775C24.6449 14.532 24.2756 15.5054 24.2756 16.5137C24.2756 17.5221 24.6449 18.4954 25.3138 19.25ZM16.005 11C14.9172 11 13.8538 11.3226 12.9494 11.9269C12.0449 12.5313 11.3399 13.3902 10.9237 14.3952C10.5074 15.4002 10.3985 16.5061 10.6107 17.573C10.8229 18.6399 11.3467 19.6199 12.1159 20.3891C12.8851 21.1583 13.8651 21.6821 14.932 21.8943C15.9989 22.1065 17.1048 21.9976 18.1098 21.5813C19.1148 21.165 19.9737 20.4601 20.5781 19.5556C21.1824 18.6512 21.505 17.5878 21.505 16.5C21.505 15.0413 20.9255 13.6424 19.8941 12.6109C18.8626 11.5795 17.4637 11 16.005 11ZM16.005 19.25C15.4611 19.25 14.9294 19.0887 14.4772 18.7865C14.0249 18.4844 13.6725 18.0549 13.4643 17.5524C13.2562 17.0499 13.2017 16.4969 13.3078 15.9635C13.414 15.43 13.6759 14.94 14.0605 14.5555C14.4451 14.1709 14.9351 13.9089 15.4685 13.8028C16.002 13.6967 16.5549 13.7512 17.0574 13.9593C17.5599 14.1675 17.9894 14.5199 18.2915 14.9722C18.5937 15.4244 18.755 15.9561 18.755 16.5C18.755 17.2293 18.4653 17.9288 17.9495 18.4445C17.4338 18.9603 16.7343 19.25 16.005 19.25Z" fill="#21A86E"/>
</svg>