<svg width="33" height="33" viewBox="0 0 33 33" fill="none" xmlns="http://www.w3.org/2000/svg">
<g clip-path="url(#clip0_40_279)">
<path d="M21.1621 18.1088C21.3483 18.1088 22.0465 18.4113 23.2568 19.0163C24.4671 19.6213 25.1081 19.9856 25.1797 20.1094C25.2083 20.1781 25.2227 20.2813 25.2227 20.4188C25.2227 20.8725 25.1009 21.395 24.8574 21.9863C24.6283 22.5225 24.1198 22.9728 23.332 23.3372C22.5443 23.7016 21.8138 23.8838 21.1406 23.8838C20.3242 23.8838 18.9635 23.4575 17.0586 22.605C15.6549 21.9863 14.4375 21.175 13.4062 20.1713C12.375 19.1675 11.3151 17.8956 10.2266 16.3556C9.19531 14.8844 8.68685 13.5506 8.70117 12.3544V12.1894C8.74414 10.9381 9.27409 9.85188 10.291 8.93063C10.6348 8.62813 11.0072 8.47688 11.4082 8.47688C11.4941 8.47688 11.623 8.48719 11.7949 8.50782C11.9668 8.52844 12.1029 8.53876 12.2031 8.53876C12.4753 8.53876 12.665 8.58344 12.7725 8.67282C12.8799 8.76219 12.9909 8.95125 13.1055 9.24001C13.2201 9.51501 13.4564 10.12 13.8145 11.055C14.1725 11.99 14.3516 12.5056 14.3516 12.6019C14.3516 12.8906 14.1045 13.2859 13.6104 13.7878C13.1162 14.2897 12.8691 14.6094 12.8691 14.7469C12.8691 14.8431 12.9049 14.9463 12.9766 15.0563C13.4635 16.06 14.194 17.0019 15.168 17.8819C15.9701 18.6106 17.0514 19.305 18.4121 19.965C18.584 20.0613 18.7415 20.1094 18.8848 20.1094C19.0996 20.1094 19.4863 19.7759 20.0449 19.1091C20.6035 18.4422 20.9759 18.1088 21.1621 18.1088ZM16.8008 29.04C18.6198 29.04 20.3636 28.6963 22.0322 28.0088C23.7008 27.3213 25.1367 26.4 26.3398 25.245C27.543 24.09 28.5026 22.7116 29.2188 21.1097C29.9349 19.5078 30.293 17.8338 30.293 16.0875C30.293 14.3413 29.9349 12.6672 29.2188 11.0653C28.5026 9.46344 27.543 8.08501 26.3398 6.93001C25.1367 5.775 23.7008 4.85375 22.0322 4.16625C20.3636 3.47875 18.6198 3.135 16.8008 3.135C14.9818 3.135 13.238 3.47875 11.5693 4.16625C9.90072 4.85375 8.46484 5.775 7.26172 6.93001C6.05859 8.08501 5.09896 9.46344 4.38281 11.0653C3.66667 12.6672 3.30859 14.3413 3.30859 16.0875C3.30859 18.8788 4.16797 21.4088 5.88672 23.6775L4.18945 28.4831L9.38867 26.895C11.6517 28.325 14.1224 29.04 16.8008 29.04ZM16.8008 0.536255C18.9922 0.536255 21.0869 0.948755 23.085 1.77375C25.083 2.59875 26.8053 3.70563 28.252 5.09438C29.6986 6.48313 30.8516 8.13657 31.7109 10.0547C32.5703 11.9728 33 13.9838 33 16.0875C33 18.1913 32.5703 20.2022 31.7109 22.1203C30.8516 24.0384 29.6986 25.6919 28.252 27.0806C26.8053 28.4694 25.083 29.5763 23.085 30.4013C21.0869 31.2263 18.9922 31.6388 16.8008 31.6388C14.0078 31.6388 11.3939 30.9925 8.95898 29.7L0 32.4638L2.92188 24.1106C1.375 21.6631 0.601562 18.9888 0.601562 16.0875C0.601562 13.9838 1.03125 11.9728 1.89062 10.0547C2.75 8.13657 3.90299 6.48313 5.34961 5.09438C6.79622 3.70563 8.51855 2.59875 10.5166 1.77375C12.5146 0.948755 14.6094 0.536255 16.8008 0.536255Z" fill="#21A86E"/>
</g>
<defs>
<clipPath id="clip0_40_279">
<rect width="33" height="33" fill="white"/>
</clipPath>
</defs>
</svg>